<svg xmlns="http://www.w3.org/2000/svg" xmlns:xlink="http://www.w3.org/1999/xlink" width="105" zoomAndPan="magnify" viewBox="0 0 78.75 52.499999" height="70" preserveAspectRatio="xMidYMid meet" version="1.0"><defs><g/><clipPath id="fbe5e05334"><path d="M 0.246094 0 L 78.253906 0 L 78.253906 52.003906 L 0.246094 52.003906 Z M 0.246094 0 " clip-rule="nonzero"/></clipPath></defs><g clip-path="url(#fbe5e05334)"><path fill="#ffffff" d="M 0.246094 0 L 78.253906 0 L 78.253906 52.003906 L 0.246094 52.003906 Z M 0.246094 0 " fill-opacity="1" fill-rule="nonzero"/><path fill="#ffffff" d="M 0.246094 0 L 78.253906 0 L 78.253906 52.003906 L 0.246094 52.003906 Z M 0.246094 0 " fill-opacity="1" fill-rule="nonzero"/></g><g fill="#000000" fill-opacity="1"><g transform="translate(13.318097, 43.131118)"><g><path d="M 0.390625 -5.328125 L 1.921875 -5.328125 C 2.671875 -5.328125 3.304688 -5.070312 3.828125 -4.5625 C 4.347656 -4.0625 4.609375 -3.429688 4.609375 -2.671875 C 4.609375 -1.898438 4.347656 -1.257812 3.828125 -0.75 C 3.304688 -0.25 2.671875 0 1.921875 0 L 0.390625 0 Z M 1.59375 -1.078125 L 1.78125 -1.078125 C 2.226562 -1.078125 2.59375 -1.226562 2.875 -1.53125 C 3.15625 -1.832031 3.296875 -2.207031 3.296875 -2.65625 C 3.296875 -3.113281 3.15625 -3.488281 2.875 -3.78125 C 2.59375 -4.082031 2.226562 -4.234375 1.78125 -4.234375 L 1.59375 -4.234375 Z M 1.59375 -1.078125 "/></g></g></g><g fill="#000000" fill-opacity="1"><g transform="translate(17.759619, 43.131118)"><g><path d="M 3.09375 -5.328125 L 5.234375 0 L 3.9375 0 L 3.546875 -1.0625 L 1.515625 -1.0625 L 1.125 0 L -0.1875 0 L 1.96875 -5.328125 Z M 3.125 -2.125 L 2.53125 -3.671875 L 2.515625 -3.671875 L 1.921875 -2.125 Z M 3.125 -2.125 "/></g></g></g><g fill="#000000" fill-opacity="1"><g transform="translate(22.498109, 43.131118)"><g><path d="M 1.59375 -3.296875 L 1.59375 0 L 0.390625 0 L 0.390625 -5.328125 L 1.59375 -5.328125 L 3.71875 -2.015625 L 3.734375 -2.015625 L 3.734375 -5.328125 L 4.9375 -5.328125 L 4.9375 0 L 3.734375 0 L 1.609375 -3.296875 Z M 1.59375 -3.296875 "/></g></g></g><g fill="#000000" fill-opacity="1"><g transform="translate(27.507741, 43.131118)"><g><path d="M 1.59375 -5.328125 L 1.59375 0 L 0.390625 0 L 0.390625 -5.328125 Z M 1.59375 -5.328125 "/></g></g></g><g fill="#000000" fill-opacity="1"><g transform="translate(29.173281, 43.131118)"><g><path d="M 3.4375 -5.328125 L 3.4375 -4.265625 L 1.59375 -4.265625 L 1.59375 -3.203125 L 3.359375 -3.203125 L 3.359375 -2.140625 L 1.59375 -2.140625 L 1.59375 -1.0625 L 3.4375 -1.0625 L 3.4375 0 L 0.390625 0 L 0.390625 -5.328125 Z M 3.4375 -5.328125 "/></g></g></g><g fill="#000000" fill-opacity="1"><g transform="translate(32.594792, 43.131118)"><g><path d="M 1.59375 -5.328125 L 1.59375 -1.0625 L 3.4375 -1.0625 L 3.4375 0 L 0.390625 0 L 0.390625 -5.328125 Z M 1.59375 -5.328125 "/></g></g></g><g fill="#000000" fill-opacity="1"><g transform="translate(35.919465, 43.131118)"><g/></g></g><g fill="#000000" fill-opacity="1"><g transform="translate(37.359051, 43.131118)"><g><path d="M 0.390625 -5.328125 L 2.296875 -5.328125 C 2.804688 -5.328125 3.222656 -5.1875 3.546875 -4.90625 C 3.867188 -4.632812 4.03125 -4.25 4.03125 -3.75 C 4.03125 -3.351562 3.929688 -3.019531 3.734375 -2.75 C 3.535156 -2.488281 3.269531 -2.304688 2.9375 -2.203125 L 4.765625 0 L 3.21875 0 L 1.59375 -2.109375 L 1.59375 0 L 0.390625 0 Z M 1.59375 -2.96875 L 1.75 -2.96875 C 1.851562 -2.96875 1.941406 -2.96875 2.015625 -2.96875 C 2.097656 -2.96875 2.1875 -2.976562 2.28125 -3 C 2.382812 -3.03125 2.46875 -3.066406 2.53125 -3.109375 C 2.59375 -3.160156 2.644531 -3.234375 2.6875 -3.328125 C 2.726562 -3.421875 2.75 -3.53125 2.75 -3.65625 C 2.75 -3.789062 2.726562 -3.898438 2.6875 -3.984375 C 2.644531 -4.078125 2.59375 -4.144531 2.53125 -4.1875 C 2.46875 -4.238281 2.382812 -4.273438 2.28125 -4.296875 C 2.1875 -4.328125 2.097656 -4.34375 2.015625 -4.34375 C 1.941406 -4.351562 1.851562 -4.359375 1.75 -4.359375 L 1.59375 -4.359375 Z M 1.59375 -2.96875 "/></g></g></g><g fill="#000000" fill-opacity="1"><g transform="translate(41.658548, 43.131118)"><g><path d="M 1.59375 -5.328125 L 1.59375 0 L 0.390625 0 L 0.390625 -5.328125 Z M 1.59375 -5.328125 "/></g></g></g><g fill="#000000" fill-opacity="1"><g transform="translate(43.324087, 43.131118)"><g><path d="M 2.046875 0 L -0.1875 -5.328125 L 1.1875 -5.328125 L 2.53125 -1.828125 L 3.875 -5.328125 L 5.234375 -5.328125 L 3 0 Z M 2.046875 0 "/></g></g></g><g fill="#000000" fill-opacity="1"><g transform="translate(48.062576, 43.131118)"><g><path d="M 3.4375 -5.328125 L 3.4375 -4.265625 L 1.59375 -4.265625 L 1.59375 -3.203125 L 3.359375 -3.203125 L 3.359375 -2.140625 L 1.59375 -2.140625 L 1.59375 -1.0625 L 3.4375 -1.0625 L 3.4375 0 L 0.390625 0 L 0.390625 -5.328125 Z M 3.4375 -5.328125 "/></g></g></g><g fill="#000000" fill-opacity="1"><g transform="translate(51.484087, 43.131118)"><g><path d="M 0.390625 -5.328125 L 2.296875 -5.328125 C 2.804688 -5.328125 3.222656 -5.1875 3.546875 -4.90625 C 3.867188 -4.632812 4.03125 -4.25 4.03125 -3.75 C 4.03125 -3.351562 3.929688 -3.019531 3.734375 -2.75 C 3.535156 -2.488281 3.269531 -2.304688 2.9375 -2.203125 L 4.765625 0 L 3.21875 0 L 1.59375 -2.109375 L 1.59375 0 L 0.390625 0 Z M 1.59375 -2.96875 L 1.75 -2.96875 C 1.851562 -2.96875 1.941406 -2.96875 2.015625 -2.96875 C 2.097656 -2.96875 2.1875 -2.976562 2.28125 -3 C 2.382812 -3.03125 2.46875 -3.066406 2.53125 -3.109375 C 2.59375 -3.160156 2.644531 -3.234375 2.6875 -3.328125 C 2.726562 -3.421875 2.75 -3.53125 2.75 -3.65625 C 2.75 -3.789062 2.726562 -3.898438 2.6875 -3.984375 C 2.644531 -4.078125 2.59375 -4.144531 2.53125 -4.1875 C 2.46875 -4.238281 2.382812 -4.273438 2.28125 -4.296875 C 2.1875 -4.328125 2.097656 -4.34375 2.015625 -4.34375 C 1.941406 -4.351562 1.851562 -4.359375 1.75 -4.359375 L 1.59375 -4.359375 Z M 1.59375 -2.96875 "/></g></g></g><g fill="#000000" fill-opacity="1"><g transform="translate(55.783582, 43.131118)"><g><path d="M 3.09375 -5.328125 L 5.234375 0 L 3.9375 0 L 3.546875 -1.0625 L 1.515625 -1.0625 L 1.125 0 L -0.1875 0 L 1.96875 -5.328125 Z M 3.125 -2.125 L 2.53125 -3.671875 L 2.515625 -3.671875 L 1.921875 -2.125 Z M 3.125 -2.125 "/></g></g></g><path stroke-linecap="butt" transform="matrix(0.186726, 0, 0, 0.186726, 2.541972, 8.31247)" fill="none" stroke-linejoin="miter" d="M 72.722205 -14.141553 L 116.820926 -14.141553 C 137.94982 -14.141553 156.003519 -6.924258 171.023862 7.510333 C 186.023284 21.965844 193.533456 40.061382 193.533456 61.817867 C 193.533456 83.69987 186.065124 101.879087 171.10754 116.334598 C 156.170877 130.790109 138.054419 138.007404 116.820926 138.007404 L 72.722205 138.007404 Z M 107.407062 107.025333 L 112.762505 107.025333 C 125.398002 107.025333 135.732332 102.757714 143.786416 94.243398 C 151.861419 85.687241 155.96168 74.934517 156.066278 62.006144 C 156.066278 49.098691 152.049696 38.345967 143.995613 29.768891 C 135.962449 21.149976 125.54444 16.840518 112.762505 16.840518 L 107.407062 16.840518 Z M 199.600168 -14.141553 L 253.99138 -14.141553 C 268.635168 -14.141553 280.580315 -10.22957 289.784982 -2.426523 C 299.010569 5.376524 303.612902 16.526723 303.612902 31.024073 C 303.612902 42.216111 300.809663 51.588135 295.182264 59.161065 C 289.596705 66.733996 282.023775 72.047599 272.442553 75.101875 L 324.825475 138.007404 L 280.726753 138.007404 L 234.264106 77.884194 L 234.264106 138.007404 L 199.600168 138.007404 Z M 234.264106 53.34539 L 238.322527 53.34539 C 241.502321 53.34539 244.200962 53.30355 246.41845 53.178032 C 248.656858 53.052514 251.167221 52.63412 253.99138 51.92285 C 256.81554 51.169741 259.074867 50.102837 260.790282 48.763976 C 262.526617 47.383276 264.011915 45.395905 265.246177 42.822782 C 266.48044 40.22874 267.087111 37.111705 267.087111 33.450758 C 267.087111 29.768891 266.48044 26.630936 265.246177 24.036894 C 264.011915 21.463771 262.526617 19.49732 260.790282 18.137539 C 259.074867 16.798679 256.81554 15.752694 253.99138 14.999585 C 251.167221 14.246476 248.656858 13.807162 246.41845 13.681644 C 244.200962 13.577045 241.502321 13.514286 238.322527 13.514286 L 234.264106 13.514286 Z M 234.264106 53.34539 " stroke="#000000" stroke-width="6.915975" stroke-opacity="1" stroke-miterlimit="4"/></svg>